<?xml version="1.0" encoding="UTF-8" standalone="no"?><!DOCTYPE svg PUBLIC "-//W3C//DTD SVG 1.1//EN" "http://www.w3.org/Graphics/SVG/1.1/DTD/svg11.dtd"><svg width="100%" height="100%" viewBox="0 0 24 24" version="1.1" xmlns="http://www.w3.org/2000/svg" xmlns:xlink="http://www.w3.org/1999/xlink" xml:space="preserve" xmlns:serif="http://www.serif.com/" style="fill-rule:evenodd;clip-rule:evenodd;stroke-linecap:round;stroke-linejoin:round;"><path d="M6.75,19.25l10.5,0c1.105,0 2,-0.895 2,-2l0,-7.422c0,-0.53 -0.211,-1.039 -0.586,-1.414l-3.078,-3.078c-0.375,-0.375 -0.884,-0.586 -1.414,-0.586l-7.422,0c-1.105,0 -2,0.895 -2,2l-0,10.5c-0,1.105 0.895,2 2,2Z" style="fill:none;fill-rule:nonzero;stroke:#000;stroke-width:1.5px;"/><path d="M8.75,19l0,-3.25c0,-0.552 0.448,-1 1,-1l4.5,0c0.552,0 1,0.448 1,1l0,3.25" style="fill:none;fill-rule:nonzero;stroke:#000;stroke-width:1.5px;"/><path d="M8.75,5l0,3.25" style="fill:none;fill-rule:nonzero;stroke:#000;stroke-width:1.5px;"/></svg>